<svg width="256" height="256" viewBox="0 0 256 256" fill="none" xmlns="http://www.w3.org/2000/svg">
<g clip-path="url(#clip0_41_3)">
<path d="M209.5 16C215.061 16 222.934 16.6322 229.459 17.2711C232.712 17.5897 235.614 17.9083 237.703 18.1473C238.446 18.2323 239.085 18.3071 239.601 18.3683C239.502 19.3153 239.362 20.6892 239.193 22.4033C238.855 25.8393 238.405 30.6436 237.954 36.1184C237.054 47.0566 236.15 60.7131 236.15 71.4801C236.15 82.2641 237.057 90.5859 237.956 98.8371L237.958 98.8544C238.857 107.107 239.748 115.29 239.748 125.904C239.748 136.517 238.857 144.701 237.958 152.953L237.956 152.97C237.057 161.222 236.15 169.543 236.15 180.327C236.15 191.094 237.054 204.751 237.954 215.689C238.405 221.164 238.855 225.968 239.193 229.404C239.362 231.122 239.503 232.499 239.602 233.446C239.602 233.45 239.602 233.455 239.603 233.459C238.979 233.542 238.171 233.648 237.214 233.771C234.844 234.075 231.567 234.48 227.938 234.885C220.657 235.698 212.047 236.5 206.5 236.5C202.045 236.5 195.835 234.849 188.286 232.826L188.206 232.805C177.806 230.018 165.191 226.638 152.487 226.746C141.714 226.838 132.829 229.482 124.491 231.964L124.431 231.982C116.556 234.326 109.219 236.5 101 236.5C91.5094 236.5 79.1608 233.555 67.9289 230.868L67.9088 230.863C63.4389 229.794 59.1524 228.768 55.3538 228.011C51.5669 227.255 48.1681 226.746 45.5 226.746C39.6658 226.746 31.1194 228.413 24.1457 230.038C20.6343 230.856 17.479 231.673 15.2018 232.286C14.6319 232.44 14.1167 232.58 13.6645 232.705C13.7574 231.831 13.8736 230.72 14.0067 229.41C14.3559 225.975 14.8215 221.171 15.2871 215.697C16.2172 204.76 17.1514 191.102 17.1514 180.327C17.1514 169.536 16.2141 161.214 15.285 152.966L15.283 152.948C14.3538 144.698 13.4335 136.519 13.4335 125.904C13.4335 115.288 14.3538 107.11 15.283 98.8598L15.285 98.8419C16.2141 90.5934 17.1514 82.2719 17.1514 71.4801C17.1514 60.7059 16.2172 47.0476 15.2871 36.1105C14.8215 30.636 14.3559 25.8324 14.0067 22.397C13.8736 21.0873 13.7574 19.9762 13.6645 19.1025C14.1167 19.2272 14.6319 19.3679 15.2018 19.5213C17.479 20.1343 20.6343 20.9519 24.1457 21.7698C31.1194 23.3942 39.6658 25.0613 45.5 25.0613C50.5539 25.0613 56.9268 23.8181 63.9124 22.4554L64.049 22.4288C73.2793 20.6282 83.764 18.5872 94.5043 18.5565C106.203 18.5231 115.256 21.1875 124.381 23.8798L124.438 23.8968C134.35 26.8215 144.351 29.7724 157.588 28.9974C169.369 28.3077 180.776 24.3363 190.373 20.9949L190.455 20.9664C194.352 19.6097 197.932 18.3638 201.164 17.4543C204.405 16.5419 207.19 16 209.5 16Z" fill="#FAF0CA" stroke="#F4D35E" stroke-width="3"/>
<path d="M112.023 178.792C104.684 178.792 97.8577 177.469 91.543 174.824C85.2283 172.093 79.6817 168.253 74.903 163.304C70.2097 158.269 66.4977 152.253 63.767 145.256C61.1217 138.259 59.799 130.408 59.799 121.704C59.799 113.171 61.1217 105.405 63.767 98.408C66.4977 91.3253 70.2097 85.3093 74.903 80.36C79.5963 75.3253 85.1003 71.4427 91.415 68.712C97.815 65.9813 104.684 64.616 112.023 64.616C119.276 64.616 126.06 65.9813 132.375 68.712C138.775 71.4427 144.322 75.3253 149.015 80.36C153.794 85.3093 157.506 91.3253 160.151 98.408C162.882 105.405 164.247 113.171 164.247 121.704C164.247 130.323 162.882 138.131 160.151 145.128C157.506 152.125 153.794 158.141 149.015 163.176C144.322 168.125 138.775 171.965 132.375 174.696C126.06 177.427 119.276 178.792 112.023 178.792ZM112.023 79.976C106.988 79.976 102.38 80.9147 98.199 82.792C94.103 84.6693 90.6043 87.4 87.703 90.984C84.8017 94.568 82.5403 98.9627 80.919 104.168C79.383 109.288 78.615 115.133 78.615 121.704C78.615 126.824 79.3403 131.048 80.791 134.376C82.327 137.704 84.503 140.392 87.319 142.44C90.2203 144.403 93.719 145.768 97.815 146.536C101.996 147.304 106.732 147.688 112.023 147.688C117.314 147.688 122.007 147.304 126.103 146.536C130.284 145.768 133.783 144.403 136.599 142.44C139.415 140.392 141.548 137.704 142.999 134.376C144.535 131.048 145.303 126.824 145.303 121.704C145.303 115.133 144.492 109.288 142.871 104.168C141.335 98.9627 139.116 94.568 136.215 90.984C133.314 87.4 129.815 84.6693 125.719 82.792C121.623 80.9147 117.058 79.976 112.023 79.976Z" fill="#0D3B66"/>
<path d="M167.037 199C165.202 199 164.285 198.104 164.285 196.312V189.016C164.285 187.821 164.733 186.861 165.629 186.136C169.384 183.149 172.626 180.461 175.357 178.072C178.13 175.683 180.434 173.592 182.269 171.8C184.146 169.965 185.597 168.429 186.621 167.192C187.688 165.955 188.392 165.016 188.733 164.376C189.16 163.565 189.48 162.627 189.693 161.56C189.949 160.493 190.077 159.555 190.077 158.744C190.077 156.141 189.373 154.072 187.965 152.536C186.6 150.957 184.381 150.168 181.309 150.168C179.346 150.168 177.298 150.531 175.165 151.256C173.074 151.939 170.813 153.176 168.381 154.968C167.784 155.395 167.272 155.608 166.845 155.608C166.418 155.565 166.056 155.437 165.757 155.224C165.458 154.968 165.224 154.648 165.053 154.264C164.882 153.88 164.754 153.517 164.669 153.176L163.901 149.848C163.73 149.165 163.88 148.483 164.349 147.8C164.562 147.587 164.797 147.416 165.053 147.288C165.309 147.117 165.544 146.968 165.757 146.84C168.573 145.219 171.304 144.045 173.949 143.32C176.594 142.595 179.005 142.232 181.181 142.232C184.125 142.232 186.792 142.616 189.181 143.384C191.613 144.109 193.682 145.176 195.389 146.584C197.138 147.949 198.482 149.635 199.421 151.64C200.36 153.603 200.829 155.821 200.829 158.296C200.829 160.856 200.253 163.352 199.101 165.784C197.992 168.216 196.584 170.605 194.877 172.952C194.024 174.147 193.128 175.32 192.189 176.472C191.25 177.581 190.269 178.712 189.245 179.864C188.264 180.973 187.282 182.083 186.301 183.192C185.32 184.259 184.338 185.325 183.357 186.392C183.186 186.563 183.208 186.669 183.421 186.712C183.677 186.712 183.933 186.712 184.189 186.712H198.333C199.186 186.712 199.869 186.968 200.381 187.48C200.893 187.992 201.149 188.675 201.149 189.528V196.312C201.149 197.123 200.893 197.784 200.381 198.296C199.869 198.765 199.186 199 198.333 199H167.037Z" fill="#0D3B66"/>
</g>
<defs>
<clipPath id="clip0_41_3">
<rect width="256" height="256" fill="white"/>
</clipPath>
</defs>
</svg>
